<svg id="Grupo_309" data-name="Grupo 309" xmlns="http://www.w3.org/2000/svg" xmlns:xlink="http://www.w3.org/1999/xlink" width="443.464" height="156.629" viewBox="0 0 443.464 156.629">
  <defs>
    <clipPath id="clip-path">
      <rect id="Retângulo_645" data-name="Retângulo 645" width="443.464" height="156.629" fill="none"/>
    </clipPath>
  </defs>
  <g id="Grupo_105" data-name="Grupo 105" clip-path="url(#clip-path)">
    <g id="Grupo_111" data-name="Grupo 111">
      <path id="Caminho_314" data-name="Caminho 314" d="M97.621,36.226H76.677a24.017,24.017,0,0,0-15.795,5.93,24.021,24.021,0,0,0-15.795-5.93H24.144A24.214,24.214,0,0,0,0,60.37v51.715H19.2V68.753a16.056,16.056,0,0,1,32.112,0v43.332H71.736V68.753a16.055,16.055,0,0,1,32.111,0v43.332h17.918V60.37A24.215,24.215,0,0,0,97.621,36.226" transform="translate(0 4.286)" fill="#e64a3f"/>
      <path id="Caminho_315" data-name="Caminho 315" d="M223.479,36.226c-1.032,0-2.052.053-3.064.134H185.55V152.343h17.918V112.085h20.011a37.929,37.929,0,1,0,0-75.859m.952,60.043H203.468V52.732h19.269c.559-.047,1.123-.077,1.693-.077,11.578,0,20.963,9.763,20.963,21.807s-9.385,21.807-20.963,21.807" transform="translate(21.95 4.286)" fill="#e64a3f"/>
      <path id="Caminho_316" data-name="Caminho 316" d="M304.626,112.085H283.682a24.215,24.215,0,0,1-24.144-24.144V36.226h19.2V79.558a16.055,16.055,0,0,0,32.111,0V36.226H328.77V87.941a24.215,24.215,0,0,1-24.144,24.144" transform="translate(30.703 4.286)" fill="#e64a3f"/>
      <path id="Caminho_317" data-name="Caminho 317" d="M404.576,78.188a37.929,37.929,0,0,0-37.928-37.929H346.635V0H328.718V115.983h34.865c1.011.082,2.031.134,3.064.134a37.929,37.929,0,0,0,37.928-37.929m-16.014-.306c0,12.044-9.386,21.807-20.963,21.807-.571,0-1.135-.03-1.694-.077H346.635V56.075H367.6c11.577,0,20.963,9.763,20.963,21.807" transform="translate(38.887)" fill="#e64a3f"/>
      <path id="Caminho_318" data-name="Caminho 318" d="M185.494,36.226H167.575V79.558a16.055,16.055,0,1,1-32.111,0V36.226h-19.2V87.941a24.214,24.214,0,0,0,24.143,24.144h20.944a13.7,13.7,0,0,0,6.923-1.476,84.2,84.2,0,0,1-.47,8.831c-.59,5.54-1.344,7.426-2.068,8.75a13.518,13.518,0,0,1-2.989,3.851,13.274,13.274,0,0,1-3.765,2.316c-2.295.942-4.865,1.584-11.232,1.835-2.2.087-5.127.142-8.592.037a.071.071,0,0,0-.075.072v15.407a.072.072,0,0,0,.064.072,70.991,70.991,0,0,0,8.6.565,49.513,49.513,0,0,0,19.087-3.524,28.8,28.8,0,0,0,13.582-11.526q5.066-8,5.067-21.512V96.5c0-.121.009-.239.009-.36V36.226Z" transform="translate(13.754 4.286)" fill="#e64a3f"/>
    </g>
  </g>
</svg>
